<svg width="16" height="16" viewBox="0 0 16 16" fill="none" xmlns="http://www.w3.org/2000/svg">
<path d="M9.38262 1.00007C10.8138 1.15095 12.1507 1.78605 13.1721 2.80034C14.1936 3.81462 14.8384 5.14734 15 6.57809M9.38262 3.81015C10.0732 3.9464 10.7069 4.28719 11.2015 4.78828C11.6961 5.28938 12.0287 5.92764 12.1562 6.62024M14.9649 11.4817V13.5893C14.9657 13.7849 14.9256 13.9786 14.8473 14.1578C14.7689 14.3371 14.654 14.498 14.5099 14.6303C14.3658 14.7626 14.1957 14.8633 14.0105 14.9259C13.8252 14.9886 13.6289 15.0119 13.4342 14.9943C11.2735 14.7594 9.19795 14.0207 7.3744 12.8376C5.67784 11.7589 4.23944 10.3198 3.16137 8.62243C1.97468 6.78969 1.23618 4.70306 1.0057 2.53156C0.988152 2.33729 1.01123 2.1415 1.07346 1.95664C1.13569 1.77178 1.23571 1.60191 1.36715 1.45785C1.4986 1.31378 1.65858 1.19868 1.83692 1.11986C2.01527 1.04105 2.20806 1.00025 2.40302 1.00007H4.50954C4.85031 0.996713 5.18067 1.11744 5.43905 1.33976C5.69743 1.56208 5.86619 1.87081 5.91389 2.20841C6.0028 2.88287 6.16769 3.54511 6.40541 4.18249C6.49988 4.43394 6.52033 4.70721 6.46432 4.96993C6.40832 5.23265 6.27822 5.4738 6.08943 5.66481L5.19767 6.55701C6.19725 8.31581 7.65278 9.77206 9.41071 10.7721L10.3025 9.87994C10.4934 9.69106 10.7344 9.56089 10.997 9.50486C11.2596 9.44883 11.5327 9.46929 11.784 9.56381C12.4211 9.80164 13.083 9.96662 13.7572 10.0556C14.0982 10.1037 14.4098 10.2756 14.6324 10.5386C14.8551 10.8015 14.9734 11.1372 14.9649 11.4817Z" stroke="#1A1110" stroke-linecap="round" stroke-linejoin="round"/>
</svg>
