<svg width="16" height="16" viewBox="0 0 16 16" fill="none" xmlns="http://www.w3.org/2000/svg">
<path d="M12.6666 15C13.9553 15 15 13.9553 15 12.6667C15 11.378 13.9553 10.3333 12.6666 10.3333C11.378 10.3333 10.3333 11.378 10.3333 12.6667C10.3333 13.9553 11.378 15 12.6666 15Z" stroke="#E50000" stroke-width="2" stroke-linecap="round" stroke-linejoin="round"/>
<path d="M3.33333 5.66667C4.622 5.66667 5.66667 4.622 5.66667 3.33333C5.66667 2.04467 4.622 1 3.33333 1C2.04467 1 1 2.04467 1 3.33333C1 4.622 2.04467 5.66667 3.33333 5.66667Z" stroke="#E50000" stroke-width="2" stroke-linecap="round" stroke-linejoin="round"/>
<path d="M12.6666 3.33334V2.55556M12.6666 7.22222V6.44445M3.33331 5.66667V15" stroke="#E50000" stroke-width="2" stroke-linecap="round" stroke-linejoin="round"/>
</svg>
