<svg width="390" height="269" viewBox="0 0 390 269" fill="none" xmlns="http://www.w3.org/2000/svg">
<g style="mix-blend-mode:color-dodge">
<path fill-rule="evenodd" clip-rule="evenodd" d="M62.1976 52.0508C63.1693 44.9252 69.2864 39.4249 76.6776 39.4249C77.8734 39.4249 79.0366 39.5688 80.1498 39.8405C79.9847 38.8183 79.8998 37.7701 79.8998 36.7015C79.8998 25.8587 88.7023 17.0567 99.5452 17.0567C110.389 17.0567 119.192 25.8587 119.192 36.7015C119.192 37.3093 119.163 37.9105 119.11 38.5044C120.763 37.9027 122.548 37.575 124.407 37.575C132.622 37.575 139.355 43.9716 139.89 52.0508H62.1976Z" fill="white"/>
<path fill-rule="evenodd" clip-rule="evenodd" d="M287.074 27.7794C287.055 27.5661 287.046 27.3499 287.046 27.1312C287.046 23.0736 290.339 19.781 294.396 19.781C296.329 19.781 298.09 20.5291 299.403 21.7525C300.653 17.6082 304.503 14.586 309.052 14.586C310.396 14.586 311.678 14.8487 312.851 15.3276C312.589 14.3662 312.451 13.3566 312.451 12.3133C312.451 5.95815 317.61 0.798763 323.967 0.798763C330.322 0.798763 335.481 5.95815 335.481 12.3133C335.481 12.3777 335.479 12.4422 335.479 12.5048C336.057 12.406 336.653 12.353 337.261 12.353C342.405 12.353 346.684 16.0799 347.548 20.9773C348.639 20.3327 349.913 19.9635 351.272 19.9635C355.329 19.9635 358.622 23.2567 358.622 27.3125C358.622 27.4691 358.619 27.6251 358.608 27.7794L287.074 27.7794Z" fill="white"/>
<path fill-rule="evenodd" clip-rule="evenodd" d="M132.723 135.008C132.703 134.795 132.694 134.579 132.694 134.36C132.694 130.303 135.987 127.01 140.045 127.01C141.978 127.01 143.738 127.758 145.051 128.981C146.301 124.837 150.151 121.815 154.7 121.815C156.044 121.815 157.326 122.078 158.5 122.556C158.238 121.595 158.099 120.586 158.099 119.542C158.099 113.187 163.259 108.028 169.615 108.028C175.97 108.028 181.13 113.187 181.13 119.542C181.13 119.607 181.128 119.671 181.128 119.734C181.706 119.635 182.301 119.582 182.91 119.582C188.053 119.582 192.333 123.309 193.196 128.206C194.288 127.562 195.562 127.192 196.922 127.192C200.978 127.192 204.271 130.486 204.271 134.541C204.271 134.698 204.267 134.854 204.256 135.008H132.723Z" fill="white"/>
<mask id="mask0_2958_3230" style="mask-type:luminance" maskUnits="userSpaceOnUse" x="294" y="14" width="29" height="255">
<path d="M294.867 14.2891H322.834V269H294.867V14.2891Z" fill="white"/>
</mask>
<g mask="url(#mask0_2958_3230)">
<path fill-rule="evenodd" clip-rule="evenodd" d="M308.59 14.2891H309.111L312.519 123.564L316.126 124.421L315.986 128.104L314.31 128.738L314.471 134.012L317.151 134.402L317.508 136.937L320.265 137.569L320.362 142.411L320.194 146.785L320.536 149.344L318.071 150.585L317.75 152.774L314.374 153.057L314.77 159.008L312.883 158.483L313.637 165.152L322.834 174.425L312.22 183.424L319.679 269H298.021L305.481 183.424L294.867 174.425L304.063 165.152L304.818 158.483L302.931 159.008L303.327 153.057L299.95 152.774L299.63 150.585L297.164 149.344L297.508 146.785L297.338 142.411L297.435 137.569L300.193 136.937L300.551 134.402L303.23 134.012L303.39 128.738L301.715 128.104L301.574 124.421L305.181 123.564L308.59 14.2891Z" fill="white"/>
</g>
<mask id="mask1_2958_3230" style="mask-type:luminance" maskUnits="userSpaceOnUse" x="196" y="2" width="42" height="267">
<path d="M196.135 2.74811H237.011V269H196.135V2.74811Z" fill="white"/>
</mask>
<g mask="url(#mask1_2958_3230)">
<path fill-rule="evenodd" clip-rule="evenodd" d="M223.641 8.49255C214.367 34.5304 207.765 112.49 203.729 176.635C209.474 114.326 218.042 38.8724 227.755 11.0991L237.01 16.9638L235.735 269L196.135 268.88C196.135 268.88 197.992 41.0464 214.575 2.74765L223.641 8.49255Z" fill="white"/>
</g>
<mask id="mask2_2958_3230" style="mask-type:luminance" maskUnits="userSpaceOnUse" x="59" y="173" width="125" height="96">
<path d="M59.8096 173.186H183.689V269H59.8096V173.186Z" fill="white"/>
</mask>
<g mask="url(#mask2_2958_3230)">
<path fill-rule="evenodd" clip-rule="evenodd" d="M88.647 173.186H153.701C153.701 173.186 150.16 180.507 141.331 184.312C132.503 188.116 130.166 196.967 130.166 196.967L130.147 269H112.202L112.18 196.967C112.18 196.967 109.845 188.116 101.016 184.312C92.1878 180.507 88.647 173.186 88.647 173.186Z" fill="white"/>
<path fill-rule="evenodd" clip-rule="evenodd" d="M59.8098 193.557H110.804C110.804 193.557 108.029 199.296 101.108 202.279C94.1871 205.26 92.3564 212.198 92.3564 212.198L92.3396 268.664H78.2728L78.2565 212.198C78.2565 212.198 76.4259 205.26 69.5058 202.279C62.5844 199.296 59.8098 193.557 59.8098 193.557Z" fill="white"/>
<path fill-rule="evenodd" clip-rule="evenodd" d="M132.694 193.557H183.689C183.689 193.557 180.913 199.296 173.993 202.279C167.071 205.26 165.241 212.198 165.241 212.198L165.224 268.664H151.158L151.142 212.198C151.142 212.198 149.31 205.26 142.39 202.279C135.469 199.296 132.694 193.557 132.694 193.557Z" fill="white"/>
</g>
<mask id="mask3_2958_3230" style="mask-type:luminance" maskUnits="userSpaceOnUse" x="170" y="145" width="30" height="124">
<path d="M170.873 145.722H199.833V269H170.873V145.722Z" fill="white"/>
</mask>
<g mask="url(#mask3_2958_3230)">
<path fill-rule="evenodd" clip-rule="evenodd" d="M186.423 171.313C189.303 171.82 191.495 174.338 191.495 177.361C191.495 180.214 189.547 182.615 186.907 183.304L187.118 188.494C194.279 189.365 199.833 195.471 199.833 202.867C199.833 209.858 194.867 215.7 188.272 217.052L190.371 269L180.336 268.848L182.461 217.057C175.854 215.716 170.873 209.868 170.873 202.867C170.873 195.456 176.451 189.339 183.634 188.487L183.847 183.317C181.184 182.644 179.211 180.232 179.211 177.361C179.211 174.318 181.432 171.788 184.339 171.304L185.389 145.722L186.423 171.313Z" fill="white"/>
</g>
<mask id="mask4_2958_3230" style="mask-type:luminance" maskUnits="userSpaceOnUse" x="226" y="174" width="110" height="95">
<path d="M226.611 174.543H335.154V269H226.611V174.543Z" fill="white"/>
</mask>
<g mask="url(#mask4_2958_3230)">
<path fill-rule="evenodd" clip-rule="evenodd" d="M231.86 269H226.611L226.732 214.012L234.296 213.752L234.088 218.393L239.88 218.047L240.298 199.709L258.13 199.829L258.53 192.694C258.53 192.694 264.258 176.164 280.543 174.543H281.221C297.507 176.164 303.235 192.694 303.235 192.694L303.635 199.829L321.467 199.709L321.884 218.047L327.678 218.393L327.469 213.752L335.034 214.012L335.155 269H330.727V235.056C330.727 233.351 329.342 231.967 327.637 231.967C325.932 231.967 324.548 233.351 324.548 235.056V269H320.428V235.056C320.428 233.351 319.044 231.967 317.339 231.967C315.634 231.967 314.25 233.351 314.25 235.056V269H310.13V235.056C310.13 233.351 308.746 231.967 307.041 231.967C305.334 231.967 303.95 233.351 303.95 235.056V269H299.832V235.056C299.832 233.351 298.446 231.967 296.741 231.967C295.036 231.967 293.652 233.351 293.652 235.056V269H289.532V235.056C289.532 233.351 288.148 231.967 286.443 231.967C284.738 231.967 283.354 233.351 283.354 235.056V269H279.234V235.056C279.234 233.351 277.85 231.967 276.145 231.967C274.44 231.967 273.054 233.351 273.054 235.056V269H268.936V235.056C268.936 233.351 267.551 231.967 265.845 231.967C264.14 231.967 262.756 233.351 262.756 235.056V269H258.636V235.056C258.636 233.351 257.251 231.967 255.547 231.967C253.842 231.967 252.458 233.351 252.458 235.056V269H248.337V235.056C248.337 233.351 246.954 231.967 245.249 231.967C243.544 231.967 242.159 233.351 242.159 235.056V269H238.04V235.056C238.04 233.351 236.655 231.967 234.951 231.967C233.245 231.967 231.86 233.351 231.86 235.056V269Z" fill="white"/>
</g>
<mask id="mask5_2958_3230" style="mask-type:luminance" maskUnits="userSpaceOnUse" x="44" y="37" width="53" height="232">
<path d="M44.573 37.9897H96.212V269H44.573V37.9897Z" fill="white"/>
</mask>
<g mask="url(#mask5_2958_3230)">
<path fill-rule="evenodd" clip-rule="evenodd" d="M55.3453 37.9898H85.439C85.439 37.9898 99.2196 146.915 95.6084 269H45.1765C41.5653 146.915 55.3453 37.9898 55.3453 37.9898ZM62.916 225.718H59.0855V221.251C59.0855 220.194 59.9439 219.335 61.0017 219.335C62.0582 219.335 62.916 220.194 62.916 221.251V225.718ZM69.2741 225.718H65.4436V221.251C65.4436 220.194 66.3014 219.335 67.3592 219.335C68.4157 219.335 69.2741 220.194 69.2741 221.251V225.718ZM85.5589 197.693H81.7301V193.225C81.7301 192.168 82.5879 191.31 83.6445 191.31C84.7005 191.31 85.5589 192.168 85.5589 193.225V197.693ZM57.1796 162.582H53.3502V158.113C53.3502 157.057 54.2086 156.199 55.2652 156.199C56.3218 156.199 57.1796 157.057 57.1796 158.113V162.582ZM63.5377 162.582H59.7071V158.113C59.7071 157.057 60.5661 156.199 61.6227 156.199C62.6793 156.199 63.5377 157.057 63.5377 158.113V162.582ZM69.8952 162.582H66.0647V158.113C66.0647 157.057 66.9231 156.199 67.9808 156.199C69.0374 156.199 69.8952 157.057 69.8952 158.113V162.582ZM69.5729 138.048H65.7442V133.58C65.7442 132.523 66.602 131.665 67.6586 131.665C68.7151 131.665 69.5729 132.523 69.5729 133.58V138.048ZM76.9015 111.024H73.0715V106.557C73.0715 105.499 73.9293 104.641 74.9871 104.641C76.0437 104.641 76.9015 105.499 76.9015 106.557V111.024ZM83.2596 111.024H79.4291V106.557C79.4291 105.499 80.2875 104.641 81.344 104.641C82.4018 104.641 83.2596 105.499 83.2596 106.557V111.024ZM64.1123 93.519H60.2824V89.0511C60.2824 87.9946 61.1402 87.1367 62.1968 87.1367C63.2546 87.1367 64.1123 87.9946 64.1123 89.0511V93.519ZM60.2987 63.9734H56.47V59.505C56.47 58.449 57.3277 57.5912 58.3843 57.5912C59.4403 57.5912 60.2987 58.449 60.2987 59.505V63.9734ZM66.6562 63.9734H62.8263V59.505C62.8263 58.449 63.6859 57.5912 64.7418 57.5912C65.7984 57.5912 66.6562 58.449 66.6562 59.505V63.9734ZM73.0143 63.9734H69.1844V59.505C69.1844 58.449 70.0422 57.5912 71.1 57.5912C72.1565 57.5912 73.0143 58.449 73.0143 59.505V63.9734Z" fill="white"/>
</g>
<mask id="mask6_2958_3230" style="mask-type:luminance" maskUnits="userSpaceOnUse" x="358" y="87" width="32" height="182">
<path d="M358.373 87.7975H390V269H358.373V87.7975Z" fill="white"/>
</mask>
<g mask="url(#mask6_2958_3230)">
<path fill-rule="evenodd" clip-rule="evenodd" d="M360.907 87.7976L358.372 269L390 268.792L389.665 97.658L360.907 87.7976ZM378.917 220.415H375.087V215.948C375.087 214.89 375.945 214.032 377.002 214.032C378.058 214.032 378.917 214.89 378.917 215.948V220.415ZM372.243 220.363H368.413V215.895C368.413 214.837 369.272 213.979 370.328 213.979C371.386 213.979 372.243 214.837 372.243 215.895V220.363ZM373.398 185.424H369.568V180.956C369.568 179.9 370.426 179.042 371.483 179.042C372.539 179.042 373.398 179.9 373.398 180.956V185.424ZM384.198 165.645H380.368V161.177C380.368 160.119 381.225 159.261 382.284 159.261C383.34 159.261 384.198 160.119 384.198 161.177V165.645ZM374.346 150.269H370.517V145.802C370.517 144.745 371.375 143.888 372.431 143.888C373.488 143.888 374.346 144.745 374.346 145.802V150.269ZM369.19 115.115H365.36V110.647C365.36 109.591 366.217 108.733 367.276 108.733C368.332 108.733 369.19 109.591 369.19 110.647V115.115ZM375.295 115.115H371.464V110.647C371.464 109.591 372.323 108.733 373.381 108.733C374.437 108.733 375.295 109.591 375.295 110.647V115.115Z" fill="white"/>
</g>
<mask id="mask7_2958_3230" style="mask-type:luminance" maskUnits="userSpaceOnUse" x="322" y="66" width="52" height="203">
<path d="M322.834 66.2046H373.694V269H322.834V66.2046Z" fill="white"/>
</mask>
<g mask="url(#mask7_2958_3230)">
<path fill-rule="evenodd" clip-rule="evenodd" d="M325.79 82.4376L326.046 66.2384L342.769 66.2047L342.696 74.447L356.999 74.5133L356.906 66.3107L373.694 66.2775L373.461 124.324H361.593V127.026H373.449L373.241 178.658H364.448V181.36H373.231L372.878 268.442L322.834 269L323.55 223.754H336.172V221.052H323.593L325.643 91.6618H338.967V88.9602H325.687L325.746 85.1393H338.331V82.4376H325.79ZM342.209 240.159H355.895V237.458H342.209V240.159ZM342.209 165.529H355.895V162.828H342.209V165.529ZM342.209 152.46H355.895V149.759H342.209V152.46ZM342.209 99.2789H355.895V96.5779H342.209V99.2789Z" fill="white"/>
</g>
<mask id="mask8_2958_3230" style="mask-type:luminance" maskUnits="userSpaceOnUse" x="0" y="59" width="52" height="210">
<path d="M0 59.52H51.1487V269H0V59.52Z" fill="white"/>
</mask>
<g mask="url(#mask8_2958_3230)">
<path fill-rule="evenodd" clip-rule="evenodd" d="M0.313962 268.457L0.00012207 140.462L2.41024 140.011L2.77468 105.385L14.0386 105.46L15.0349 63.133L18.2727 59.5199L19.8034 83.6693C19.8034 83.6693 35.3285 102.839 39.7078 115.144L40.1391 142.038L43.0504 144.369L51.1488 269L0.313962 268.457ZM21.4135 253.574H24.6037V247.962H21.4135V253.574ZM31.6775 218.095H34.8677V212.483H31.6775V218.095ZM31.5269 207.621H34.7171V202.009H31.5269V207.621ZM20.9678 189.543H24.158V183.931H20.9678V189.543ZM22.1207 136.175H25.3109V130.563H22.1207V136.175ZM17.8185 124.325H21.0087V118.712H17.8185V124.325Z" fill="white"/>
</g>
</g>
</svg>
